<svg xmlns="http://www.w3.org/2000/svg" width="24" height="24" viewBox="0 0 24" shape-rendering="crispEdges">
    <g id="pixel-waves">
        <g fill="#93C5FD">
            <rect x="7" y="11" width="1" height="1"/>
            <rect x="8" y="12" width="1" height="1"/>
            <rect x="7" y="13" width="1" height="1"/>
        </g>
        <g fill="#60A5FA">
            <rect x="10" y="10" width="1" height="1"/>
            <rect x="11" y="11" width="1" height="1"/>
            <rect x="12" y="12" width="1" height="1"/>
            <rect x="11" y="13" width="1" height="1"/>
            <rect x="10" y="14" width="1" height="1"/>
        </g>
        <g fill="#3B82F6">
            <rect x="13" y="9" width="1" height="1"/>
            <rect x="14" y="10" width="1" height="1"/>
            <rect x="15" y="11" width="1" height="1"/>
            <rect x="16" y="12" width="1" height="1"/>
            <rect x="15" y="13" width="1" height="1"/>
            <rect x="14" y="14" width="1" height="1"/>
            <rect x="13" y="15" width="1" height="1"/>
        </g>
    </g>
</svg>

